<svg width="201" height="40" viewBox="0 0 201 40" fill="none" xmlns="http://www.w3.org/2000/svg">
<path d="M0.988281 37.4707V28.4905H2.1122V32.9476L6.32687 28.4905H7.8504L4.29134 32.1486L8.03772 37.4905H6.52668L3.5046 32.9476L2.1122 34.3804V37.4905L0.988281 37.4707Z" fill="white"/>
<path fill-rule="evenodd" clip-rule="evenodd" d="M15.0165 35.3215L13.875 35.1786C13.7476 35.5767 13.5116 35.9285 13.1954 36.1921C12.8943 36.4152 12.5303 36.5299 12.1596 36.5186C11.6463 36.5322 11.1519 36.3194 10.8004 35.9336C10.415 35.4739 10.1999 34.8884 10.1934 34.2808H15.0825V33.9747C15.1295 33.0357 14.8221 32.1143 14.2247 31.4037C13.6761 30.7957 12.8985 30.4632 12.0936 30.4922C11.2606 30.4663 10.4581 30.8165 9.89647 31.4513C9.2963 32.181 8.99361 33.1219 9.05193 34.0767C8.9983 35.0029 9.29915 35.9138 9.88987 36.6138C10.4925 37.2226 11.3175 37.5391 12.1596 37.4844C12.8233 37.5136 13.4777 37.3151 14.0202 36.9199C14.5191 36.5195 14.8705 35.9556 15.0165 35.3215ZM13.8885 33.3423H10.2597C10.2636 32.8093 10.4696 32.2991 10.8337 31.9207C11.1713 31.5747 11.6312 31.3856 12.1071 31.397C12.6411 31.3884 13.1475 31.6406 13.4729 32.0772C13.7313 32.4464 13.8761 32.8872 13.8885 33.3423Z" fill="white"/>
<path fill-rule="evenodd" clip-rule="evenodd" d="M22.1222 35.3203L20.9699 35.1775C20.8412 35.5755 20.6031 35.9272 20.2839 36.1907C19.9798 36.4137 19.6124 36.5284 19.2381 36.5171C18.72 36.5307 18.2209 36.3179 17.866 35.9323C17.4784 35.4745 17.2614 34.8918 17.2532 34.2867H22.1289V33.9807C22.1873 33.0441 21.889 32.1207 21.2963 31.4034C20.7425 30.7956 19.9575 30.4632 19.1449 30.4922C18.3132 30.4742 17.5143 30.8237 16.9535 31.451C16.3476 32.1806 16.042 33.1213 16.1009 34.0759C16.0468 35.0018 16.3505 35.9125 16.9468 36.6123C17.5615 37.2283 18.4056 37.5452 19.2648 37.4827C19.9348 37.5119 20.5954 37.3134 21.1431 36.9183C21.6368 36.5137 21.9819 35.9505 22.1222 35.3203ZM20.9835 33.3416H17.3135C17.3192 32.8078 17.5296 32.2975 17.8996 31.9203C18.2404 31.5744 18.7047 31.3853 19.1851 31.3967C19.7242 31.3881 20.2354 31.6403 20.5639 32.0767C20.8248 32.4459 20.971 32.8865 20.9835 33.3416Z" fill="white"/>
<path fill-rule="evenodd" clip-rule="evenodd" d="M23.1436 30.6286V39.4905L24.3223 39.4645V36.3437C24.5296 36.593 24.7918 36.7991 25.0917 36.9483C25.4186 37.104 25.7825 37.1822 26.1504 37.1759C26.6959 37.1752 27.2298 37.0309 27.6891 36.7598C28.1844 36.472 28.5732 36.0526 28.8043 35.5569C29.0659 34.999 29.1958 34.3962 29.1854 33.7885C29.1923 33.2116 29.0748 32.6392 28.8396 32.1045C28.6326 31.6221 28.2737 31.2078 27.8091 30.9147C27.3432 30.6299 26.7942 30.4824 26.2351 30.4921C25.8339 30.4778 25.4354 30.5584 25.0776 30.7262C24.7343 30.9084 24.44 31.1595 24.2165 31.4609V30.6286H23.1436ZM24.7534 35.6935C24.3458 35.1618 24.1535 34.5153 24.2099 33.8665C24.1644 33.2017 24.3688 32.5428 24.7887 32.0005C25.0982 31.6032 25.592 31.3625 26.1227 31.3503C26.6378 31.3544 27.1211 31.5806 27.4284 31.9615C27.8338 32.4966 28.0258 33.1444 27.9719 33.795C28.0312 34.4683 27.834 35.1396 27.4143 35.6935C27.088 36.0716 26.5905 36.2899 26.0662 36.2851C25.553 36.2847 25.0687 36.0665 24.7534 35.6935Z" fill="white"/>
<path fill-rule="evenodd" clip-rule="evenodd" d="M30.1934 28.4905V29.761H31.2004V28.4905H30.1934ZM30.1934 30.9721V37.4905H31.2004V30.9721H30.1934Z" fill="white"/>
<path d="M33.2139 37.4905V30.6397H34.1571V31.6134C34.5893 30.8759 35.3441 30.4491 36.1377 30.4937C36.4916 30.4888 36.8427 30.5645 37.1689 30.7162C37.4479 30.8354 37.6916 31.0376 37.8732 31.3004C38.0349 31.5573 38.1462 31.8487 38.2002 32.1559C38.2432 32.5272 38.2579 32.9017 38.2442 33.2757V37.4905H37.1941V33.3174C37.2099 32.9578 37.1695 32.5978 37.0746 32.2533C36.9919 32.0165 36.8389 31.8179 36.6408 31.6899C36.4198 31.5471 36.1673 31.4748 35.9114 31.4813C35.4859 31.4736 35.0731 31.6423 34.7544 31.9542C34.3658 32.4473 34.1831 33.0988 34.2514 33.7486V37.4905H33.2139Z" fill="white"/>
<path fill-rule="evenodd" clip-rule="evenodd" d="M40.6129 37.6059L39.4933 37.4524C39.4309 38.0429 39.7028 38.6212 40.212 38.9814C40.7929 39.3413 41.4835 39.5185 42.1817 39.4869C42.781 39.5044 43.3754 39.3811 43.9095 39.1286C44.3536 38.9174 44.7141 38.5815 44.9392 38.1689C45.2116 37.5016 45.3316 36.7893 45.2917 36.0769V30.626H44.1997V31.3938C43.7306 30.8154 42.9906 30.48 42.2093 30.4917C41.6522 30.4759 41.1029 30.6164 40.6336 30.8947C40.1748 31.1852 39.8189 31.5948 39.6108 32.0719C39.3719 32.5983 39.2519 33.1644 39.2583 33.7353C39.2345 34.5443 39.5046 35.3373 40.0254 35.9873C40.5385 36.6147 41.3534 36.9667 42.2024 36.9278C42.9351 36.9365 43.6312 36.632 44.0891 36.1025C44.1111 36.5603 44.0833 37.0189 44.0062 37.4716C43.9216 37.8039 43.7137 38.0982 43.4188 38.3033C43.0501 38.5195 42.6172 38.6224 42.1817 38.5976C41.766 38.6199 41.3536 38.5167 41.0068 38.3033C40.7766 38.1316 40.6338 37.879 40.6129 37.6059ZM40.9861 35.5012C40.5833 34.9748 40.3948 34.3334 40.4539 33.6906C40.3951 33.0649 40.587 32.4409 40.993 31.9377C41.3095 31.5692 41.7906 31.3547 42.2992 31.3555C42.817 31.3551 43.3073 31.5714 43.633 31.9441C44.0423 32.4439 44.239 33.0654 44.1859 33.6906C44.2538 34.3341 44.0645 34.9783 43.6538 35.5012C43.3203 35.862 42.8329 36.0698 42.3199 36.0698C41.8069 36.0698 41.3196 35.862 40.9861 35.5012Z" fill="white"/>
<path fill-rule="evenodd" clip-rule="evenodd" d="M52.6308 28.4905L49.3272 37.4905H50.536L51.4789 34.764H55.08L56.0863 37.4905H57.3836L53.8585 28.4905H52.6308ZM54.7189 33.7978H51.8076L52.738 31.1574C52.9345 30.5972 53.089 30.022 53.2 29.4368C53.3476 29.9221 53.5586 30.5441 53.8328 31.3029L54.7189 33.7978Z" fill="white"/>
<path d="M58.3907 37.4559V30.6536H59.4037V31.6066C59.8472 30.902 60.6202 30.4833 61.4433 30.5017C61.87 30.4832 62.2928 30.5912 62.6602 30.8124C62.9783 31.0178 63.2181 31.3272 63.3401 31.6895C63.7687 30.9576 64.5413 30.505 65.3796 30.4948C65.9438 30.4578 66.4978 30.6604 66.9093 31.0542C67.3037 31.5362 67.4966 32.1559 67.4464 32.7806V37.449H66.3178V33.1743C66.334 32.839 66.2973 32.5033 66.2091 32.1798C66.1338 31.975 65.9924 31.8022 65.808 31.6895C65.6034 31.5629 65.3676 31.4982 65.1281 31.503C64.6879 31.4889 64.2617 31.6615 63.9519 31.9795C63.6008 32.404 63.4319 32.9538 63.4828 33.5058V37.4559H62.3475V33.0362C62.375 32.6316 62.2776 32.2284 62.0687 31.8829C61.847 31.6085 61.5057 31.4636 61.1577 31.4961C60.8452 31.4947 60.5388 31.5833 60.2739 31.7517C59.9996 31.9255 59.7912 32.1883 59.6824 32.4975C59.5462 32.9724 59.4933 33.468 59.5261 33.9616V37.4905L58.3907 37.4559Z" fill="white"/>
<path fill-rule="evenodd" clip-rule="evenodd" d="M74.4628 35.3188L73.311 35.176C73.1923 35.5903 72.956 35.9594 72.6319 36.2365C72.328 36.4595 71.9607 36.5742 71.5866 36.5628C71.0687 36.5764 70.5698 36.3637 70.2151 35.9782C69.8172 35.5081 69.5996 34.9068 69.6025 34.2855H74.4961V33.9796C74.5545 33.0433 74.2563 32.1202 73.6638 31.4032C73.1103 30.7955 72.3256 30.4632 71.5134 30.4922C70.6849 30.4635 69.8844 30.8004 69.3163 31.4168C68.7047 32.1557 68.4012 33.1099 68.4707 34.0748C68.4166 35.0004 68.7202 35.9108 69.3163 36.6104C70.4696 37.658 72.1684 37.7835 73.4575 36.9163C73.9609 36.5161 74.3155 35.9526 74.4628 35.3188ZM73.3106 33.3407H69.6621C69.6625 32.81 69.8655 32.3003 70.228 31.9199C70.5687 31.5741 71.0328 31.3851 71.513 31.3965C72.0518 31.3879 72.5629 31.64 72.8912 32.0763C73.1519 32.4453 73.2981 32.8858 73.3106 33.3407Z" fill="white"/>
<path d="M75.5107 37.4835V30.6433H76.6401V31.678C76.8283 31.3093 77.1006 30.9825 77.4382 30.7197C77.6749 30.5688 77.9562 30.4888 78.2439 30.4905C78.7052 30.5007 79.1541 30.6307 79.5389 30.8655L79.1022 31.9419C78.826 31.7839 78.5086 31.6975 78.1836 31.6919C77.9117 31.6872 77.6462 31.768 77.4307 31.9211C77.2066 32.0809 77.0432 32.3021 76.9639 32.553C76.8194 32.9919 76.7483 33.4485 76.7531 33.9072V37.4905L75.5107 37.4835Z" fill="white"/>
<path fill-rule="evenodd" clip-rule="evenodd" d="M80.546 28.4905V29.761H81.5531V28.4905H80.546ZM80.546 30.9721V37.4905H81.5531V30.9721H80.546Z" fill="white"/>
<path d="M87.4496 34.8675L88.6029 35.0097C88.516 35.7032 88.1713 36.3431 87.6324 36.8108C87.1051 37.2588 86.4227 37.5004 85.7196 37.488C84.8593 37.5226 84.0256 37.1966 83.434 36.5942C82.8139 35.8775 82.5041 34.9585 82.569 34.0278C82.5546 33.3799 82.6816 32.7363 82.9417 32.1386C83.162 31.6137 83.5613 31.1767 84.074 30.8995C84.5793 30.6292 85.1486 30.4893 85.7266 30.4932C86.3904 30.4648 87.0439 30.6586 87.5762 31.0417C88.0726 31.4362 88.4007 31.9931 88.4974 32.6059L87.3582 32.7751C87.2838 32.3878 87.0816 32.0339 86.7815 31.7662C86.5025 31.5401 86.1474 31.4197 85.7829 31.4276C85.2434 31.4202 84.7283 31.6434 84.3764 32.0371C83.9584 32.5987 83.7615 33.2851 83.8208 33.9737C83.7604 34.6636 83.9492 35.3524 84.3553 35.9238C84.7003 36.3264 85.2201 36.5516 85.7618 36.5332C86.1863 36.5462 86.5995 36.4006 86.9151 36.1269C87.2383 35.7788 87.4271 35.334 87.4496 34.8675Z" fill="white"/>
<path fill-rule="evenodd" clip-rule="evenodd" d="M92.0888 37.2679C92.5269 37.079 92.9297 36.8154 93.2798 36.4887C93.2962 36.7787 93.3642 37.0634 93.4806 37.3289H94.6448C94.5069 37.0805 94.4119 36.8101 94.3638 36.5294C94.298 35.8653 94.2734 35.1978 94.2902 34.5306V33.0197C94.3006 32.671 94.2827 32.322 94.2366 31.9762C94.1841 31.6941 94.0647 31.429 93.8887 31.2038C93.6779 30.9692 93.4104 30.794 93.1126 30.6957C92.6707 30.5468 92.2064 30.478 91.7409 30.4924C91.242 30.4776 90.7443 30.5486 90.2689 30.7024C89.8847 30.8304 89.5438 31.0652 89.2853 31.38C89.0368 31.718 88.8695 32.1101 88.7968 32.5251L89.8942 32.6944C89.9621 32.3101 90.1582 31.961 90.4495 31.7052C90.8007 31.495 91.2068 31.3981 91.6138 31.4274C92.0699 31.3941 92.5223 31.5315 92.8851 31.8136C93.1234 32.0781 93.2379 32.4334 93.1995 32.7893V33.0874C92.5451 33.2859 91.8726 33.4176 91.1922 33.4804C90.859 33.5159 90.5282 33.5725 90.202 33.6498C89.916 33.7288 89.6448 33.8547 89.399 34.0224C89.1552 34.1971 88.9576 34.4298 88.8236 34.7C88.6758 34.9741 88.5998 35.282 88.6028 35.5944C88.5931 36.1103 88.8056 36.6049 89.1849 36.9495C89.6556 37.3357 90.2533 37.5269 90.8577 37.4847C91.2777 37.4887 91.6948 37.4153 92.0888 37.2679ZM91.3599 34.3883C91.9829 34.3175 92.5958 34.1743 93.1865 33.9614L93.1798 34.3815C93.2 34.7674 93.1384 35.1532 92.9992 35.513C92.8403 35.8443 92.5829 36.1168 92.2632 36.2922C91.9106 36.4871 91.5139 36.5852 91.1123 36.5768C90.7564 36.6018 90.4039 36.4933 90.122 36.2719C89.7543 35.945 89.6776 35.3951 89.9414 34.9778C90.0496 34.8143 90.2033 34.687 90.383 34.6119C90.6988 34.4988 91.0267 34.4237 91.3599 34.3883Z" fill="white"/>
<path d="M99.6797 37.4905V28.4905H100.869V32.1567H105.54V28.4905H106.729V37.4905H105.54V33.2486H100.869V37.4905H99.6797Z" fill="white"/>
<path fill-rule="evenodd" clip-rule="evenodd" d="M113.72 35.3235L112.575 35.1806C112.462 35.5905 112.234 35.9571 111.92 36.2352C111.618 36.4584 111.253 36.5731 110.881 36.5618C110.366 36.5754 109.87 36.3625 109.517 35.9766C109.122 35.5062 108.905 34.9043 108.908 34.2825H113.773V33.9763C113.825 33.0386 113.521 32.1169 112.926 31.4044C112.376 30.7962 111.596 30.4636 110.788 30.4927C109.96 30.46 109.158 30.7974 108.591 31.418C107.989 32.1479 107.685 33.0892 107.743 34.0443C107.69 34.9708 107.991 35.882 108.584 36.5822C109.726 37.6517 111.428 37.7917 112.721 36.9224C113.221 36.5219 113.574 35.9578 113.72 35.3235ZM112.588 33.3434H108.941C108.947 32.8093 109.156 32.2988 109.524 31.9214C109.863 31.5752 110.324 31.386 110.801 31.3975C111.337 31.3889 111.845 31.6412 112.171 32.0779C112.431 32.447 112.576 32.888 112.588 33.3434Z" fill="white"/>
<path fill-rule="evenodd" clip-rule="evenodd" d="M118.257 37.2688C118.696 37.0812 119.099 36.8187 119.45 36.4926C119.475 36.7735 119.55 37.0477 119.669 37.3025H120.828C120.691 37.0551 120.597 36.7857 120.549 36.5061C120.483 35.8446 120.459 35.1796 120.475 34.515V33.0099C120.486 32.6625 120.468 32.3149 120.422 31.9705C120.37 31.6894 120.251 31.4254 120.076 31.201C119.866 30.9673 119.6 30.7928 119.303 30.6948C118.863 30.5465 118.401 30.478 117.937 30.4923C117.43 30.4832 116.925 30.5631 116.445 30.7286C116.063 30.856 115.723 31.0899 115.466 31.4035C115.219 31.7403 115.052 32.1308 114.98 32.5442L116.072 32.7129C116.14 32.33 116.335 31.9822 116.625 31.7275C116.975 31.518 117.379 31.4215 117.784 31.4508C118.238 31.4176 118.689 31.5545 119.05 31.8355C119.287 32.0989 119.401 32.4529 119.363 32.8074V33.1044C118.711 33.3021 118.042 33.4332 117.364 33.4958C117.033 33.5312 116.703 33.5875 116.379 33.6646C116.094 33.7433 115.824 33.8687 115.579 34.0358C115.336 34.2097 115.14 34.4415 115.006 34.7107C114.859 34.9838 114.783 35.2905 114.786 35.6017C114.777 36.1156 114.988 36.6083 115.366 36.9515C115.835 37.3363 116.43 37.5268 117.031 37.4848C117.45 37.4887 117.865 37.4156 118.257 37.2688ZM117.538 34.4003C118.158 34.3298 118.768 34.1871 119.356 33.9751L119.336 34.3868C119.356 34.7712 119.295 35.1555 119.156 35.514C119.003 35.8444 118.751 36.1181 118.437 36.2969C118.086 36.491 117.691 36.5888 117.291 36.5803C116.937 36.6053 116.586 36.4971 116.305 36.2766C115.939 35.951 115.863 35.4032 116.125 34.9875C116.233 34.8247 116.386 34.6978 116.565 34.623C116.879 34.5104 117.206 34.4356 117.538 34.4003Z" fill="white"/>
<path d="M122.843 37.4905V28.4905H123.85V37.4905H122.843Z" fill="white"/>
<path d="M127.727 36.3961L127.878 37.3877C127.618 37.4499 127.353 37.4836 127.086 37.4882C126.778 37.5044 126.47 37.4351 126.194 37.2872C125.997 37.1747 125.84 36.9957 125.748 36.778C125.636 36.3421 125.594 35.8891 125.623 35.4381V31.6661H124.856V30.7952H125.623V29.1604L126.665 28.4905V30.7952H127.721V31.6661H126.665V35.5252C126.653 35.7325 126.672 35.9407 126.722 36.1415C126.759 36.2342 126.823 36.3117 126.904 36.3626C127.015 36.4226 127.138 36.4504 127.262 36.443C127.418 36.4389 127.573 36.4233 127.727 36.3961Z" fill="white"/>
<path d="M128.885 37.4905V28.4905H129.925V31.7199C130.384 31.1306 131.074 30.8006 131.793 30.8265C132.203 30.8163 132.61 30.914 132.976 31.1111C133.293 31.2796 133.548 31.5571 133.698 31.8986C133.864 32.365 133.939 32.8628 133.916 33.3611V37.4905H132.876V33.3611C132.912 32.9288 132.792 32.4981 132.54 32.1567C132.286 31.8908 131.937 31.7535 131.581 31.7794C131.274 31.7775 130.973 31.8645 130.709 32.0309C130.455 32.1799 130.252 32.4119 130.13 32.6927C129.999 33.0784 129.94 33.4874 129.956 33.8971V37.464L128.885 37.4905Z" fill="white"/>
<path d="M135.482 39.3663L135.355 38.3454C135.572 38.4072 135.798 38.44 136.024 38.4429C136.23 38.4511 136.435 38.4086 136.62 38.3194C136.77 38.2386 136.896 38.1223 136.988 37.9813C137.124 37.7219 137.238 37.4522 137.329 37.175L137.429 36.9084L134.927 30.4905H136.131L137.503 34.2034C137.681 34.6715 137.84 35.1657 137.978 35.6859C138.106 35.1929 138.26 34.7067 138.44 34.2294L139.852 30.497H140.969L138.46 36.9994C138.281 37.497 138.071 37.9834 137.831 38.4559C137.676 38.7667 137.447 39.0366 137.162 39.2427C136.889 39.4128 136.569 39.4989 136.245 39.4898C135.985 39.4919 135.727 39.4501 135.482 39.3663Z" fill="white"/>
<path d="M0.988281 24.4905L3.05044 1.51024H9.06777L14.3825 18.8393L20.7772 1.49048H27.1718V24.4378L22.8914 24.4905L23.2166 5.62679L16.0088 24.4905H11.6243L6.25101 5.4292L5.05405 24.4905H0.988281Z" fill="white"/>
<path fill-rule="evenodd" clip-rule="evenodd" d="M44.3567 23.03L44.6143 20.1609C43.5706 21.2254 40.5651 21.4202 37.989 21.3682C36.7079 21.3604 35.497 20.7916 34.6862 19.8168C33.9993 19.0574 33.484 17.85 33.6095 15.3834H46.3053C46.3185 12.7285 45.8627 10.528 44.4227 8.83379C42.9827 7.13959 40.9284 6.49048 38.2862 6.49048C35.9281 6.49048 33.9332 7.0617 32.3083 8.70397C30.4506 10.4735 29.3377 12.8646 29.1905 15.4028C29.1215 17.5975 29.7799 19.7548 31.0664 21.55C32.447 23.5428 35.4194 24.4905 38.8345 24.4905C40.7897 24.4905 42.8176 24.3282 44.3567 23.03ZM41.5034 10.5863C42.0875 11.3851 42.353 12.3667 42.2498 13.345L33.7354 13.397C33.7801 12.351 34.2345 11.3626 35.0036 10.6382C35.8452 9.88421 36.9498 9.47744 38.0884 9.5023C39.7992 9.5023 40.8429 9.89176 41.5034 10.5863Z" fill="white"/>
<path fill-rule="evenodd" clip-rule="evenodd" d="M60.5751 24.8604H64.5367L65.4406 1.53067L61.2162 1.49048L61.0559 7.68629C59.7108 7.29013 58.3329 7.02773 56.9405 6.9026C53.6841 6.95619 51.6135 8.04129 50.1584 9.63546C48.3833 11.5693 47.3696 14.1302 47.3186 16.8092C47.2456 19.0489 47.9516 21.2405 49.3058 22.9782C50.5591 24.589 52.4475 25.5139 54.4341 25.49C55.4043 25.4762 56.3568 25.2165 57.2097 24.7331C58.524 24.0187 59.7016 23.0584 60.6841 21.8998L60.5751 24.8604ZM52.3509 20.6741C51.7328 19.3382 51.4736 17.8519 51.6009 16.3739C51.6958 14.7274 52.2732 13.1512 53.2548 11.8594C54.0612 10.96 55.1337 10.3702 56.2997 10.1848C57.7604 9.99533 59.2415 10.0701 60.6779 10.4059C60.9883 18.6237 59.8801 19.9391 59.0995 20.8656C59.074 20.8959 59.0488 20.9258 59.0241 20.9555C58.242 21.8932 56.6587 22.2951 55.6074 22.2951C54.274 22.2951 52.8317 21.565 52.3509 20.6741Z" fill="white"/>
<path fill-rule="evenodd" clip-rule="evenodd" d="M69.0527 0.490479L69.2148 3.5321H73.3153L73.496 0.490479H69.0527ZM69.028 7.18599L68.4609 24.4905H72.9042L73.4713 7.18599H69.028Z" fill="white"/>
<path d="M88.6027 7.68113L88.5496 10.6963C88.4434 9.7924 84.68 9.29525 83.2928 9.56643C82.0981 9.82773 81.0497 10.5199 80.359 11.5034C79.3103 12.7947 79.0315 15.2094 79.0315 15.2352C78.8589 16.7232 79.1332 18.228 79.8214 19.5675C80.3967 20.6281 81.4563 21.3592 82.6755 21.5368C83.5251 21.6724 86.6579 22.0598 87.9854 20.8072L87.8195 23.661C86.2441 24.2849 84.5466 24.5627 82.848 24.4745C80.2329 24.4745 78.2018 23.8288 76.7615 22.2341C75.1244 20.3613 74.3239 17.9301 74.538 15.4806C74.6906 12.6074 75.5469 10.5155 77.193 8.91432C80.3487 6.21727 84.8992 5.72228 88.5894 7.67467L88.6027 7.68113Z" fill="white"/>
<path d="M106.727 11.2041C106.795 9.12156 105.216 6.19174 99.3806 6.51512C97.0302 6.64447 93.6053 7.08427 92.0943 8.2161V10.2081C93.8269 9.23798 94.9484 8.75291 98.7561 8.77878C103.497 8.81112 101.946 12.0126 101.946 12.0126C101.066 12.6982 98.6419 13.4937 97.5406 13.7136C95.9467 14.0349 94.3867 14.496 92.88 15.0912C90.1938 16.2747 89.5962 18.1374 89.6096 19.6185C89.634 20.9496 90.2094 22.2162 91.2079 23.1369C92.7189 24.7667 95.1364 24.4692 97.0033 24.4692C99.5619 24.4692 99.6492 22.8911 99.8171 21.6817C98.8769 21.8903 97.9235 22.0394 96.9631 22.1279C96.1623 22.2532 95.3461 22.0177 94.7487 21.489C94.1514 20.9604 93.8388 20.197 93.9008 19.418C93.9794 18.707 94.323 18.0475 94.8678 17.5618C95.6356 16.9984 96.5267 16.6113 97.4734 16.43C99.0366 15.9803 100.559 15.4093 102.027 14.7225C102.027 14.7225 101.449 23.6607 101.509 23.9H106.251C106.183 22.2831 106.183 18.9265 106.251 16.6628C106.318 14.3991 106.727 11.2041 106.727 11.2041Z" fill="white"/>
<path fill-rule="evenodd" clip-rule="evenodd" d="M110.343 0.490479L110.505 3.5321H114.568L114.786 0.490479H110.343ZM110.318 7.18599L109.751 24.4905H114.194L114.761 7.18599H110.318Z" fill="white"/>
<path fill-rule="evenodd" clip-rule="evenodd" d="M129.065 24.8604H133.018L133.92 1.53067L129.704 1.49048L129.545 7.66619C128.211 7.2327 126.832 6.96957 125.438 6.88251C122.911 6.72811 120.443 7.72443 118.67 9.61536C116.947 11.5904 115.944 14.1372 115.836 16.8092C115.603 19.0702 116.328 21.3244 117.819 22.9782C119.069 24.589 120.954 25.5139 122.936 25.49C123.905 25.4762 124.855 25.2165 125.706 24.7331C127.018 24.0187 128.193 23.0584 129.173 21.8998L129.065 24.8604ZM120.857 20.6807C120.24 19.3448 119.982 17.8584 120.109 16.3805C120.203 14.734 120.78 13.1578 121.759 11.866C122.564 10.9666 123.634 10.3768 124.798 10.1914C126.255 10.0019 127.733 10.0767 129.167 10.4125C129.477 18.6303 128.371 19.9457 127.592 20.8722C127.566 20.9025 127.541 20.9324 127.517 20.9621C126.736 21.8998 125.156 22.3017 124.107 22.3017C122.776 22.3017 121.337 21.5716 120.857 20.6807Z" fill="white"/>
<path d="M136.941 23.4905L136.976 19.4905H140.97L140.935 23.4905H136.941Z" fill="white"/>
<path fill-rule="evenodd" clip-rule="evenodd" d="M160.889 27.0948L161.01 23.8562L161.11 7.46218C158.454 6.97975 155.77 6.65527 153.072 6.49059C149.783 6.47764 147.506 7.59173 145.985 9.13332C144.185 11.0399 143.135 13.4976 143.018 16.077C142.864 18.9723 143.199 20.7276 144.592 22.347C145.985 23.9663 148.377 24.4715 150.453 24.4715C151.467 24.4581 152.462 24.207 153.354 23.7396C154.727 23.0487 155.958 22.12 156.984 20.9997L156.87 26.1297C156.87 26.1297 155.973 29.472 151.398 29.2582C149.131 29.1325 146.885 28.7699 144.699 28.1765L145.148 31.305C147.616 32.007 150.166 32.4053 152.737 32.4904C161.003 32.4904 160.889 27.0948 160.889 27.0948ZM148.276 19.8078C147.63 18.5159 147.359 17.0786 147.492 15.6494C147.591 14.0571 148.195 12.533 149.22 11.2837C150.063 10.414 151.184 9.84368 152.402 9.66436C153.928 9.48112 155.476 9.55343 156.977 9.87811C157.301 17.825 156.143 19.097 155.328 19.9929C155.301 20.0222 155.275 20.0511 155.249 20.0798C154.432 20.9867 152.777 21.3753 151.679 21.3753C150.285 21.3753 148.778 20.6693 148.276 19.8078Z" fill="white"/>
<path fill-rule="evenodd" clip-rule="evenodd" d="M164.632 10.7903C163.805 12.1041 163.296 13.5971 163.147 15.1479C163.022 16.8921 163.433 18.6327 164.323 20.1307C165.077 21.4547 166.193 22.5293 167.537 23.2247C168.933 23.9956 170.486 24.4282 172.074 24.4883C174.485 24.5413 176.821 23.6339 178.579 21.961C180.372 20.2545 181.002 17.9682 181.227 15.3628C181.41 13.017 180.591 10.7043 178.977 9.01213C177.486 7.33163 175.282 6.49139 172.711 6.49139C171.11 6.46951 169.529 6.84285 168.102 7.57915C166.677 8.30672 165.476 9.41762 164.632 10.7903ZM168.423 19.8832C167.569 18.5946 167.141 17.0639 167.202 15.5126C167.312 13.7088 168.006 11.992 169.175 10.6275C170.137 9.76226 171.386 9.297 172.672 9.32477C174.075 9.24447 175.423 9.89522 176.245 11.0509C176.952 11.9693 177.248 13.4934 177.286 14.959C177.402 16.579 176.961 18.1896 176.039 19.5184C175.088 20.8214 173.556 21.5549 171.958 21.4725C170.588 21.5978 169.251 20.9967 168.423 19.8832Z" fill="white"/>
<path d="M188.781 24.4642L182.259 7.49048H187.048L191.102 20.3587C191.389 19.623 195.955 7.49048 195.955 7.49048H200.386L192.764 24.4905L188.781 24.4642Z" fill="white"/>
</svg>
