<svg width="80" height="77" viewBox="0 0 80 77" fill="none" xmlns="http://www.w3.org/2000/svg">
<path d="M71.6764 13.0869C71.8038 15.7048 69.6463 17.3214 68.0102 18.8578L51.2477 32.4022C49.739 33.7513 47.5656 34.8634 46.7177 36.8813C45.6071 39.5566 45.1931 42.5108 44.7274 45.4574C44.4567 47.5823 42.3908 49.4282 40.4681 50.2079C38.9754 50.7085 37.1801 50.4716 35.548 50.5901L29.7044 50.6283C29.4657 50.6745 29.2389 50.7659 29.0372 50.8971C28.8356 51.0283 28.6632 51.1968 28.5301 51.3926L28.3112 51.9353C27.6862 52.0232 27.9131 51.4996 27.8057 51.1327C27.8057 49.8983 28.1082 48.6104 29.0556 47.8804C29.5611 47.3874 30.2737 47.2689 30.9822 47.1581L39.5008 47.0396C39.9468 46.9863 40.3643 46.8006 40.695 46.5084L41.0373 45.874C41.718 41.7961 42.1121 37.5769 44.2219 34.1143C46.1803 31.9168 48.6523 30.4034 50.8337 28.4696C55.8931 24.3497 61.1317 20.1572 66.1274 15.9761C67.5405 14.692 69.0372 12.999 69.3836 10.9658L69.5706 10.4231C70.1579 10.6234 70.6722 10.9825 71.0515 11.4572C71.4308 11.9319 71.6589 12.5019 71.7083 13.0983" fill="white"/>
<path d="M76.5932 17.6847C76.844 20.2262 74.7661 21.4338 73.1101 23.0046L66.2714 28.6456L54.1145 38.5554C52.3908 40.4243 52.3033 43.069 51.8614 45.4576C51.9331 46.2219 52.7531 46.5544 52.5939 47.3685L50.9021 50.2921C50.9936 51.4578 52.4943 50.7813 52.9561 51.5113C52.9561 51.9317 52.6814 52.4553 53.0238 52.803C53.2626 53.1852 54.218 52.6655 53.7283 53.3075C53.589 53.4145 53.6408 53.6897 53.6806 53.812C53.8836 54.0681 54.2617 54.091 54.2976 54.4732C54.1955 54.7305 54.1533 55.0061 54.1739 55.2808C54.1946 55.5554 54.2775 55.8224 54.417 56.063C56.5267 58.272 60.1571 55.5356 62.3584 57.5917C62.9117 58.0618 62.8958 58.937 62.7565 59.5982C61.5822 62.904 54.6319 63.1448 57.0124 67.8341C57.2426 68.2215 57.57 68.5476 57.9649 68.7825C58.3598 69.0175 58.8096 69.1539 59.2734 69.1794C60.0695 69.3017 60.6586 68.9845 61.3075 68.7972C61.5105 68.7972 61.5264 68.9883 61.61 69.0953V69.2329C59.6197 70.6049 57.0124 72.6228 54.3414 71.1438C53.6696 70.6949 53.1509 70.0655 52.8507 69.3345C52.5504 68.6035 52.4818 67.8036 52.6536 67.0354C53.4696 64.4404 56.5785 63.7792 58.1309 61.6008C58.2995 61.2724 58.3798 60.9087 58.3645 60.5429C58.3492 60.1771 58.2388 59.8208 58.0434 59.5065C57.5458 58.6542 56.3994 58.4287 55.3923 58.2529C53.7244 58.2185 51.1648 59.2313 50.4244 57.3471C50.2055 56.6325 50.9658 55.3636 49.7716 55.1993C49.6084 54.9967 49.2262 54.8171 49.4253 54.4923C49.481 54.3012 49.8233 54.2783 49.6482 54.0337C49.4093 53.9687 49.0949 54.0337 48.9038 53.8273C48.2231 53.1164 50.098 52.3444 48.8282 51.8591C48.1873 51.775 47.3155 52.2412 46.9015 51.5266C46.7025 50.8692 47.212 50.3991 47.4668 49.8603C47.8967 48.9392 49.1506 48.3316 48.8282 47.1353L48.2151 46.1493C48.3966 43.8248 48.8044 41.5216 49.4332 39.2701C50.2692 36.7974 52.7531 35.4178 54.6558 33.7171L64.8543 25.4391L72.0752 19.3242C73.3251 18.2083 74.4158 16.9547 74.376 15.2655C74.774 15.1394 75.0129 15.5827 75.3473 15.7203C75.9443 16.3814 76.4618 16.8668 76.6091 17.6847" fill="white"/>
<path d="M73.8541 30.0212C72.5126 32.0773 70.2715 33.6252 68.2812 35.2494L60.4393 41.5592C59.0023 42.8089 58.6201 44.972 59.2769 46.6574C59.3486 47.5097 58.6599 48.0524 58.445 48.8015C58.4689 49.0231 58.5127 49.3098 58.7515 49.3747C59.0779 49.497 59.5715 49.3365 59.7546 49.7569C59.8024 50.2002 59.5914 50.6703 60.097 50.8423C60.3 50.9493 60.5985 50.613 60.6184 50.9646C60.4814 51.1457 60.4177 51.3685 60.4393 51.5914C60.698 52.0271 61.2354 51.7863 61.4862 52.1494C61.5857 52.6577 61.5857 53.315 62.1828 53.5252C64.2169 53.8539 65.7654 52.5315 67.5925 52.1494C70.4944 51.278 73.3047 52.371 75.8961 53.1086C77.2267 53.294 78.5781 53.294 79.9086 53.1086L80.0002 53.1927C78.3482 55.1265 76.3181 57.0145 73.4281 56.8158C70.3989 56.7087 68.4444 53.9953 65.1962 54.5227C62.9988 54.9431 60.8174 56.2119 58.4291 55.3597C58.1236 55.0987 57.9027 54.7589 57.7926 54.3809C57.6825 54.0028 57.6879 53.6023 57.8081 53.2271C57.6966 52.7264 56.4348 52.6041 57.2189 51.943C56.9761 51.7901 56.5661 51.943 56.4228 51.5952C56.2795 51.2474 56.7492 50.6015 56.1999 50.3378C55.7143 50.269 55.0813 50.5289 54.7151 50.1353C54.6329 50.0051 54.5824 49.8588 54.5672 49.7073C54.5521 49.5558 54.5727 49.4029 54.6275 49.2601C54.9739 48.4613 55.9173 47.8307 55.7143 46.8753C55.0813 46.302 55.2923 45.3466 55.3679 44.5402C55.7302 42.6943 55.8775 40.7413 57.6648 39.5184L67.3218 31.6913C69.352 29.8301 71.8638 28.6339 73.3326 26.1727C74.0889 27.1778 74.4512 28.8059 73.8541 30.0212Z" fill="white"/>
<path d="M44.3735 57.4046C47.1122 58.5168 49.9822 59.6212 52.4224 61.1691C52.7636 61.3966 53.0383 61.7045 53.2202 62.0631C53.4021 62.4218 53.4851 62.8193 53.4613 63.2175C52.6254 66.5463 47.8008 66.8979 48.5094 70.8229C48.5943 71.5413 48.895 72.2204 49.3749 72.7775C49.8549 73.3347 50.4932 73.7457 51.2122 73.9606C51.9491 74.1486 52.7244 74.1486 53.4613 73.9606C53.5728 74.2166 54.0425 74.4612 53.513 74.6332C51.5227 75.8447 48.999 77.2129 46.5867 76.0473C45.3925 75.5237 44.7118 74.3007 44.4053 73.1236C43.9157 69.5655 47.3669 68.4458 49.1105 66.0648C49.3936 65.5836 49.4882 65.021 49.3772 64.4787C49.0454 63.8573 48.5267 63.3459 47.8884 63.0112C41.392 59.5181 34.3343 57.1562 27.0815 55.3676C25.8873 55.2568 24.0124 54.5803 23.2123 55.9256V55.9867C22.5635 56.1205 22.8143 55.3676 22.8143 55.0351C22.8958 54.488 23.1214 53.9699 23.4697 53.5299C23.818 53.0898 24.2774 52.7424 24.8046 52.5204C26.6914 51.9853 28.6857 52.6274 30.5168 52.9408C35.2216 54.1685 39.846 55.6641 44.3655 57.4199" fill="white"/>
<path d="M42.8166 71.9582C42.2315 72.004 42.2116 72.0193 42.1917 72.1645C42.1718 72.3098 42.1917 72.7531 42.1917 73.5518C42.1917 74.3506 42.2195 74.7557 42.2434 74.9353C42.2673 75.1149 42.2952 75.092 42.8764 75.1188V75.3481L41.0373 75.3825C40.7751 75.4166 40.5083 75.3942 40.2562 75.3169C40.0042 75.2395 39.7733 75.1092 39.5804 74.9353C39.3982 74.768 39.2546 74.566 39.1586 74.3422C39.0626 74.1184 39.0165 73.8779 39.0231 73.6359C39.0231 72.7302 39.5764 71.8168 41.0413 71.79L42.7967 71.7556L42.8166 71.9582ZM41.5428 72.2372C41.5428 72.0346 41.503 72.0193 41.1448 72.0193C40.1138 72.0384 39.6958 72.5047 39.7237 73.6168C39.7515 74.7289 40.1854 75.1723 41.2124 75.1455C41.5588 75.1455 41.6105 75.1149 41.6105 75.0118L41.5428 72.2372Z" fill="white"/>
<path d="M38.6965 72.0117C38.191 72.0117 38.1671 72.0117 38.1353 72.1645C38.1034 72.3174 38.0557 72.7454 37.992 73.5518C37.9283 74.3582 37.8845 74.7442 37.8924 74.9239C37.9004 75.1035 37.9203 75.0844 38.4139 75.1608V75.3786L36.3997 75.2143C36.1202 75.1913 35.8392 75.1913 35.5598 75.2143C35.5802 74.8847 35.5802 74.5541 35.5598 74.2245L35.7946 74.2054C35.8822 74.8856 35.9897 74.9697 36.7381 75.0232L37.2197 75.0614C37.2794 75.0614 37.3153 75.0423 37.3232 74.9697L37.4307 73.7964C37.4307 73.7276 37.4307 73.7085 37.2595 73.6894H37.1083C36.5311 73.6359 36.4833 73.7276 36.3957 74.0716H36.1688C36.1688 73.9034 36.2166 73.7391 36.2365 73.4945C36.2564 73.2499 36.2564 73.0588 36.2644 72.9098H36.5112C36.5112 73.292 36.5749 73.3799 36.9849 73.4143L37.359 73.4486C37.3721 73.451 37.3856 73.4504 37.3985 73.447C37.4113 73.4436 37.4232 73.4375 37.4332 73.429C37.4431 73.4205 37.451 73.4099 37.4561 73.3981C37.4612 73.3863 37.4634 73.3735 37.4625 73.3607L37.578 72.0499C37.578 71.9811 37.5541 71.9467 37.4904 71.9467L36.5788 71.8702C36.1529 71.832 36.0255 71.939 35.8902 72.2524L35.7389 72.5964L35.4961 72.5085C35.6008 72.19 35.6793 71.8642 35.7309 71.5339L38.7363 71.7785L38.6965 72.0117Z" fill="white"/>
<path d="M35.242 71.7288C34.6966 71.6715 34.6648 71.6791 34.621 71.8091C34.5772 71.939 34.4817 72.39 34.3304 73.1734C34.1791 73.9569 34.0995 74.362 34.0876 74.5416C34.0756 74.7213 34.1115 74.6983 34.6449 74.8397L34.6011 75.0499L32.6625 74.706C32.3247 74.6638 32.0139 74.5064 31.7868 74.2626C31.7026 74.1686 31.6418 74.0576 31.6087 73.9378C31.5756 73.818 31.5711 73.6926 31.5957 73.5709C31.743 72.86 32.4396 72.669 33.383 72.8371C33.5223 72.8639 33.6736 72.9059 33.7532 72.9136L33.9841 71.7021C34.012 71.5645 33.9602 71.5377 33.3591 71.3887L33.395 71.1785L35.2818 71.5148L35.242 71.7288ZM33.7054 73.162C33.623 73.1395 33.5393 73.1216 33.4547 73.1085C32.9252 73.0167 32.4197 73.0167 32.2883 73.697C32.157 74.3773 32.5749 74.4996 33.1482 74.6028C33.395 74.6448 33.4188 74.6028 33.4427 74.5263L33.7054 73.162Z" fill="white"/>
<path d="M32.3754 71.2504C31.9535 71.1664 31.85 71.2734 31.5793 71.6326L30.0547 73.5435C29.8999 73.7268 29.7576 73.9196 29.6288 74.1206L29.3541 74.0404C29.3737 73.8293 29.3737 73.617 29.3541 73.4059L29.0317 70.7307C28.9959 70.3676 28.972 70.3065 28.5381 70.1956L28.6018 69.9778L30.3692 70.4593L30.3055 70.6657C29.784 70.5472 29.7243 70.5854 29.6925 70.7116C29.6845 70.9669 29.6965 71.2224 29.7283 71.4759C29.7406 71.5012 29.7617 71.5215 29.788 71.5333C29.9194 71.5829 30.1861 71.6632 30.6876 71.8008C31.018 71.8887 31.0379 71.8696 31.1175 71.8008C31.2651 71.625 31.3982 71.4384 31.5156 71.2428C31.5594 71.0823 31.5156 71.0364 31.03 70.8606L31.0976 70.6504L32.4789 71.0326L32.3754 71.2504ZM29.796 71.8619C29.7522 71.8619 29.7323 71.8619 29.7283 71.8619C29.7261 71.9014 29.7261 71.9409 29.7283 71.9804L29.8636 73.3562L30.7473 72.2097C30.7473 72.1791 30.7911 72.16 30.7951 72.1409C30.7991 72.1218 30.7951 72.1027 30.7473 72.0874L29.796 71.8619Z" fill="white"/>
<path d="M28.3756 70.158C27.8701 70.0013 27.8422 70.0013 27.7706 70.1274C27.5597 70.5408 27.3711 70.9643 27.2053 71.3962C26.8869 72.1606 26.7276 72.516 26.6799 72.688C26.6321 72.86 26.66 72.8523 27.1257 73.0701L27.0381 73.2727L25.1991 72.5466C24.9144 72.4647 24.6681 72.2905 24.5025 72.0536C24.4271 71.9404 24.384 71.8102 24.3778 71.676C24.3715 71.5418 24.4021 71.4084 24.4666 71.2892C24.7572 70.5898 25.6091 70.7771 25.625 70.7389C25.6389 70.6914 25.6389 70.6411 25.625 70.5936L25.2747 69.256C25.1871 68.9121 25.1513 68.8738 24.9204 68.7592L25 68.5566L25.82 68.8815L26.246 70.7924C26.246 70.8535 26.2937 70.8803 26.5007 70.9529C26.7077 71.0255 26.7117 71.0331 26.7316 70.9873C26.9076 70.6141 27.0604 70.2312 27.1894 69.8408C27.2332 69.7108 27.2133 69.6802 26.7436 69.4586L26.8311 69.256L28.4831 69.9057L28.3756 70.158ZM26.5485 71.4191C26.5804 71.3312 26.5804 71.3007 26.2738 71.1784C25.5414 70.8879 25.219 71.2357 25.1075 71.507C24.9403 71.8892 25.1314 72.2714 25.6568 72.5007C26.0032 72.6306 26.027 72.6306 26.0788 72.5007L26.5485 71.4191Z" fill="white"/>
<path d="M24.5862 68.6057C24.0568 68.3764 24.021 68.3764 23.9334 68.491C23.8458 68.6057 23.7781 68.7394 23.6348 69.007L22.4924 71.1089L23.0417 71.3879C23.2009 71.4682 23.3442 71.3879 23.8378 70.937L24.0369 71.0937C23.822 71.3456 23.6353 71.6184 23.4796 71.9077C23.388 71.8427 23.3084 71.793 23.2129 71.7319C23.1297 71.6733 23.0403 71.6233 22.9462 71.5828L21.2902 70.7612C21.1004 70.6718 20.905 70.594 20.7051 70.528C20.8575 70.2374 20.9828 69.9343 21.0793 69.6223L21.3221 69.6834C21.2305 70.314 21.2265 70.486 21.3897 70.5663L21.9351 70.8376L23.0815 68.7318C23.2248 68.4643 23.3044 68.2961 23.3522 68.1967C23.4 68.0974 23.3522 68.0362 22.8825 67.7496L22.986 67.5547L24.6937 68.4069L24.5862 68.6057Z" fill="white"/>
<path d="M22.1295 67.4217C21.628 67.1389 21.5961 67.1389 21.4966 67.2383C21.3971 67.3376 21.1344 67.716 20.6647 68.3848C20.1949 69.0536 19.9561 69.3861 19.8685 69.5313C19.7809 69.6765 19.8208 69.6918 20.2666 70.0358L20.1392 70.2154L18.945 69.432C18.945 69.4014 18.9888 69.3402 19.0047 69.2905L19.773 66.5427L17.2294 68.3122L16.0352 67.5478L16.1705 67.3644C16.6721 67.651 16.7039 67.6586 16.7994 67.5478C16.895 67.437 17.1657 67.0701 17.6314 66.4013C18.0971 65.7325 18.3479 65.4038 18.4275 65.2547C18.5071 65.1057 18.4872 65.1019 18.0295 64.7541L18.1489 64.5745L19.6974 65.5911L19.574 65.7707C19.0883 65.4993 19.0405 65.4993 18.9689 65.6063L17.2851 67.972L19.9123 66.1529C19.9879 66.0994 20.0596 66.0497 20.1392 65.9847L20.4736 66.2025C20.4424 66.2709 20.4158 66.3411 20.394 66.4127L19.5461 69.4702L20.9592 67.4905C21.0483 67.3582 21.1281 67.2203 21.1981 67.0777C21.2617 66.9516 21.2538 66.9287 20.8438 66.6153L20.9712 66.4357L22.245 67.265L22.1295 67.4217Z" fill="white"/>
<path d="M17.9896 64.6467C17.5915 64.3524 17.5557 64.3524 17.4482 64.4442C17.3408 64.5359 17.0303 64.876 16.4849 65.476C15.9396 66.0761 15.649 66.3933 15.5455 66.5347C15.442 66.6761 15.4738 66.6761 15.8281 67.0239L15.6729 67.1882L14.1523 65.9041C13.9374 65.7336 13.7114 65.5766 13.4756 65.434C13.6928 65.1799 13.8936 64.9131 14.0766 64.6353L14.2757 64.7423C13.9333 65.3461 13.9731 65.4722 14.5384 65.9461L14.9006 66.2519C14.9524 66.2901 14.9882 66.2863 15.0439 66.2519L15.8401 65.369C15.8878 65.3155 15.8958 65.285 15.7644 65.1894L15.6649 65.0939C15.2231 64.7117 15.1315 64.769 14.8449 65.006L14.6618 64.8607C14.7852 64.7346 14.9006 64.6238 15.0598 64.4289C15.2191 64.234 15.3544 64.0887 15.4579 63.9779L15.641 64.1308C15.4062 64.4327 15.3982 64.5435 15.7167 64.8072L15.9913 65.048C16.0431 65.0824 16.0829 65.0939 16.1306 65.048L17.0303 64.062C17.0418 64.0538 17.0512 64.0432 17.0576 64.0309C17.0641 64.0186 17.0674 64.005 17.0674 63.9913C17.0674 63.9775 17.0641 63.964 17.0576 63.9517C17.0512 63.9394 17.0418 63.9288 17.0303 63.9206L16.3695 63.3053C16.3246 63.2471 16.2675 63.1985 16.2018 63.1629C16.1361 63.1273 16.0634 63.1053 15.9883 63.0985C15.9132 63.0916 15.8374 63.1 15.7659 63.1232C15.6945 63.1463 15.6288 63.1836 15.5734 63.2327L15.2549 63.4352L15.1036 63.2174C15.3811 63.0122 15.6469 62.7927 15.8998 62.56L18.1648 64.4709L17.9896 64.6467Z" fill="white"/>
<path d="M15.4143 62.4795C15.0162 62.1394 15.0162 62.1317 14.8848 62.212C14.7535 62.2923 14.4191 62.5942 13.8061 63.1445C13.1931 63.6948 12.8826 63.97 12.7671 64.1038C12.6517 64.2375 12.6795 64.249 13.002 64.635L12.8348 64.7764L12.0785 64.0121C12.1091 63.9234 12.133 63.8327 12.1501 63.7407L12.8109 60.9508L12.1979 61.4935C11.5928 62.0362 11.2744 62.3152 11.155 62.4528C11.0355 62.5904 11.0634 62.6018 11.4376 63.026L11.2664 63.1751L10.2314 62.1088L10.4026 61.9598C10.741 62.3075 10.8007 62.3228 11.0196 62.147C11.2386 61.9712 11.4933 61.7648 11.7083 61.5661C12.4686 60.882 13.1095 60.3049 13.3961 59.9954L13.6628 60.2743C13.5102 60.6773 13.3917 61.0914 13.3085 61.5126L12.8189 63.6643L13.615 62.9611C14.224 62.4184 14.5385 62.1432 14.6659 62.0018C14.7933 61.8604 14.7495 61.8604 14.3315 61.375L14.5027 61.226L15.5735 62.3534L15.4143 62.4795Z" fill="white"/>
<path d="M12.2538 59.0744C11.8557 58.6463 11.8557 58.6387 11.7164 58.6922C11.5771 58.7457 11.4616 58.8489 11.2109 59.0323L9.22053 60.4617L9.58675 60.9317C9.69821 61.0693 9.86938 61.0388 10.5023 60.8515L10.6098 61.0693C10.3046 61.2139 10.0118 61.3813 9.73404 61.57C9.67831 61.4821 9.63054 61.3865 9.57879 61.3063C9.52704 61.226 9.46335 61.1343 9.39966 61.054L8.301 59.64C8.17093 59.4761 8.02715 59.3228 7.87109 59.1814C8.14574 58.9888 8.40035 58.7713 8.6314 58.5317L8.81849 58.6884C8.44829 59.2234 8.37664 59.3648 8.48013 59.5139L8.85033 59.9839L10.8407 58.5584C11.0875 58.3788 11.2387 58.2565 11.3183 58.1763C11.398 58.096 11.4218 58.0463 11.0994 57.5762L11.2865 57.4463L12.4369 58.9177L12.2538 59.0744Z" fill="white"/>
<path d="M5.53768 55.4743C5.06796 54.6259 5.40632 53.6208 6.44129 53.101C7.47626 52.5812 8.53113 52.8679 9.00085 53.7087C9.47056 54.5494 9.12027 55.566 8.08928 56.0973C7.05829 56.6285 5.99545 56.3151 5.53768 55.4743ZM8.76599 53.8309C8.50326 53.3418 7.78277 53.1736 6.77566 53.6934C5.76856 54.2131 5.50185 54.8667 5.77254 55.3597C6.04322 55.8527 6.75576 56.0132 7.76286 55.4972C8.76997 54.9813 9.03667 54.3163 8.76599 53.8309Z" fill="white"/>
<path d="M7.74725 52.0347C7.52832 51.6067 7.50841 51.5914 7.34919 51.6258C6.89739 51.7708 6.45362 51.9379 6.01965 52.1265C5.24342 52.4208 4.84934 52.5774 4.67817 52.6692C4.507 52.7609 4.54681 52.7609 4.67817 53.2195L4.47914 53.2959L3.71485 51.4997C3.60613 51.2529 3.48389 51.0118 3.34863 50.7774C3.66056 50.6478 3.96252 50.4971 4.25224 50.3264L4.37962 50.5099C3.79048 50.892 3.7666 51.0296 4.04923 51.6946L4.22438 52.1265C4.25224 52.1838 4.29205 52.1991 4.36768 52.1723L5.49818 51.7367C5.55789 51.7099 5.58178 51.6831 5.52207 51.5456L5.46634 51.4042C5.2474 50.8959 5.14789 50.8959 4.77769 50.9838L4.68613 50.7697C4.84934 50.7086 5.01254 50.6589 5.25138 50.5634C5.49022 50.4678 5.67731 50.399 5.81266 50.3417L5.90421 50.5519C5.55391 50.7162 5.50615 50.8156 5.64945 51.1863L5.79275 51.515C5.81266 51.5723 5.8445 51.5991 5.92411 51.5685L7.11831 51.0984C7.25365 51.0526 7.24967 51.0067 7.06258 50.4564L7.26957 50.3761L7.93832 51.9468L7.74725 52.0347Z" fill="white"/>
<path d="M6.01934 47.7166C5.86011 47.2045 5.83225 47.1854 5.68098 47.2006C5.52972 47.2159 5.08787 47.3153 4.27582 47.4949C3.46376 47.6745 3.05376 47.7739 2.87463 47.8312C2.6955 47.8886 2.72336 47.9115 2.82288 48.4351L2.58802 48.4809L2.16607 46.7458L2.39297 46.6923C2.55219 47.2006 2.5721 47.2274 2.72336 47.2045C2.95108 47.1738 3.17696 47.1317 3.40007 47.0783L3.74639 47.0019C3.90562 46.9637 3.91756 46.9484 3.88571 46.8146L3.56726 45.4923C3.53143 45.3624 3.50357 45.3547 3.3523 45.3891L3.00201 45.4617C2.75521 45.5267 2.44472 45.5993 2.34122 45.6299C2.23772 45.6605 2.18995 45.714 2.27753 46.2337L2.05859 46.2872L1.64062 44.5522L1.8715 44.4948C2.03073 44.9993 2.05063 45.0337 2.18995 45.0108C2.32928 44.9878 2.80298 44.8961 3.61105 44.7165C4.41912 44.5369 4.83709 44.4413 5.01224 44.3802C5.18738 44.319 5.15952 44.2999 5.07195 43.7802L5.29486 43.7305L5.69293 45.4694L5.47399 45.5229C5.31078 45.0108 5.29486 44.9878 5.14758 45.0069C5.00029 45.0261 4.5664 45.1101 3.95338 45.2515C3.80212 45.2859 3.78221 45.305 3.81804 45.435L4.13649 46.7573C4.16834 46.8911 4.18824 46.9025 4.34747 46.8681C4.95651 46.7306 5.38244 46.6274 5.54166 46.5777C5.70089 46.528 5.68895 46.4936 5.59739 45.97L5.82827 45.9242L6.25022 47.6707L6.01934 47.7166Z" fill="white"/>
<path d="M5.07186 43.6272C4.97234 43.1533 4.95642 43.138 4.80516 43.138C4.65389 43.138 4.19214 43.1839 3.36814 43.2756C2.54415 43.3673 2.11424 43.4208 1.93909 43.4667C1.76394 43.5126 1.77588 43.5202 1.80375 44.0056L1.57287 44.0323L1.33005 42.1214C1.2972 41.8559 1.24533 41.5928 1.1748 41.3341C1.42559 41.2921 2.03463 41.1736 2.17395 41.1278L2.24162 41.3341C1.56491 41.5596 1.5052 41.6666 1.60073 42.3851L1.65248 42.8514C1.65248 42.9125 1.70423 42.9393 1.77588 42.9317L2.99396 42.7864C3.06959 42.7864 3.08552 42.7864 3.06959 42.6144L3.04969 42.473C2.98202 41.9189 2.8825 41.8883 2.49638 41.8807L2.4725 41.6628C2.64765 41.6399 2.81085 41.6361 3.07756 41.6017C3.34426 41.5673 3.53135 41.5405 3.67863 41.5138L3.70252 41.7431C3.30445 41.8272 3.23678 41.9074 3.30445 42.3011L3.34824 42.6565C3.34824 42.7215 3.38008 42.7444 3.45572 42.7406L4.80914 42.5801C4.88079 42.5801 4.91263 42.5418 4.90865 42.4769L4.80118 41.6017C4.74943 41.1927 4.62205 41.101 4.25185 41.0322L3.87369 40.9711L3.91349 40.7227C4.26067 40.747 4.60924 40.747 4.95642 40.7227L5.31468 43.589L5.07186 43.6272Z" fill="white"/>
<path d="M4.66235 40.447C4.62254 40.0457 4.49516 39.9769 4.02942 39.8126L1.69278 38.9642C1.46444 38.8728 1.23047 38.7949 0.992188 38.731V38.4597C1.21497 38.4222 1.43263 38.3606 1.64103 38.2762L4.2205 37.21C4.56681 37.0762 4.61856 37.038 4.61856 36.6023H4.82555L4.8574 38.3603H4.62652C4.60264 37.8444 4.54691 37.8062 4.41157 37.8062C4.14837 37.8713 3.8924 37.9609 3.64728 38.0737C3.63456 38.0801 3.62361 38.0894 3.61531 38.1007C3.60701 38.112 3.6016 38.125 3.59951 38.1387C3.59951 38.2686 3.59951 38.5208 3.59951 39.0521C3.59951 39.3769 3.63136 39.3884 3.7468 39.4342C3.96385 39.5202 4.18917 39.5855 4.41953 39.6292C4.57875 39.6292 4.61856 39.568 4.65041 39.0788H4.87332L4.90119 40.4585L4.66235 40.447ZM3.30893 38.2762C3.30893 38.2304 3.30893 38.2113 3.28106 38.2113C3.23864 38.2179 3.1972 38.2295 3.15766 38.2457L1.82812 38.7578L3.20941 39.2508C3.2382 39.2638 3.26924 39.2716 3.30097 39.2737C3.30097 39.2737 3.32485 39.247 3.32485 39.2126L3.30893 38.2762Z" fill="white"/>
<path d="M4.62234 36.465C4.62234 35.9681 4.62234 35.9376 4.46311 35.9184C4.30389 35.8993 3.85805 35.8535 3.03406 35.777C2.21006 35.7006 1.77617 35.6738 1.58908 35.6777C1.40199 35.6815 1.42587 35.7082 1.34228 36.1898L1.10742 36.1707L1.26267 34.5235H1.48558C1.48558 35.0203 1.48558 35.0471 1.64481 35.0738C1.80404 35.1006 2.07472 35.1273 2.32948 35.1541L4.46311 35.3299C4.6502 35.3299 4.69001 35.2955 4.70991 35.1426L4.75768 34.5502C4.80545 34.0534 4.65418 33.9617 3.93368 33.6139L4.02922 33.3884C4.37959 33.4965 4.73926 33.5745 5.104 33.6216L4.84923 36.465H4.62234Z" fill="white"/>
<path d="M4.9729 33.0671C5.03261 32.5091 5.02465 32.4824 4.87737 32.4403C4.68092 32.3877 4.48158 32.3456 4.28027 32.3142L1.83615 31.9129L1.74062 32.4977C1.70479 32.6773 1.84013 32.769 2.42131 33.0747L2.32975 33.3079C2.01244 33.1953 1.68633 33.1072 1.35449 33.0442C1.38236 32.9448 1.4142 32.8531 1.43809 32.7499C1.46197 32.6467 1.48585 32.555 1.50576 32.4594L1.81625 30.7091C1.85634 30.5101 1.87634 30.3079 1.87596 30.1052C2.20917 30.1542 2.54598 30.1772 2.88306 30.174V30.4148C2.23024 30.5256 2.06305 30.5638 2.0312 30.7358L1.92373 31.3244L4.36785 31.7333C4.56785 31.769 4.76989 31.7933 4.9729 31.8059C5.12019 31.8059 5.14805 31.8059 5.28339 31.2479L5.50631 31.2823L5.17194 33.0977L4.9729 33.0671Z" fill="white"/>
<path d="M5.38656 30.6025C5.49801 30.0865 5.49403 30.0483 5.35869 29.9948C5.22335 29.9413 4.76956 29.8152 3.97343 29.6126C3.1773 29.4101 2.75933 29.2878 2.5802 29.2572C2.40107 29.2266 2.40505 29.2572 2.21796 29.7579L1.99902 29.6967L2.50457 27.9578L2.7235 28.0151C2.61204 28.5311 2.62399 28.5655 2.75933 28.6151C2.89467 28.6648 3.15739 28.7527 3.41613 28.8215L3.76245 28.9132C3.90576 28.9553 3.93362 28.9476 3.97741 28.8177L4.37547 27.5107C4.40732 27.3807 4.39936 27.3616 4.24411 27.3196L3.89381 27.224C3.65895 27.1552 3.34448 27.0864 3.23303 27.0597C3.12157 27.0329 3.05788 27.0597 2.87477 27.5642L2.65583 27.4992L3.16137 25.7832L3.38031 25.8405C3.27283 26.3641 3.27681 26.3947 3.41215 26.4482C3.5475 26.5017 4.00129 26.624 4.79742 26.8304C5.59355 27.0368 5.99162 27.1552 6.19463 27.1896C6.39764 27.224 6.35784 27.1896 6.55289 26.6928L6.77182 26.7463L6.25036 28.4928L6.01948 28.4317C6.13492 27.9196 6.12696 27.8814 5.99162 27.8317C5.85627 27.782 5.43034 27.6521 4.82529 27.4877C4.67402 27.4495 4.65014 27.461 4.61033 27.5794L4.21226 28.8903C4.17246 29.0164 4.18838 29.0394 4.34363 29.0852C4.94471 29.2457 5.37063 29.3528 5.53782 29.3833C5.70501 29.4139 5.70501 29.3833 5.89608 28.8827L6.10705 28.94L5.62142 30.6598L5.38656 30.6025Z" fill="white"/>
<path d="M8.90156 21.6366C8.95868 21.9222 8.92541 22.2177 8.80602 22.485C8.69058 22.7181 8.49155 22.8404 8.09349 22.9742C8.20956 23.3366 8.18118 23.7276 8.01387 24.071C7.95851 24.2037 7.87514 24.324 7.76901 24.4242C7.66287 24.5245 7.53627 24.6026 7.39718 24.6535C7.25808 24.7045 7.1095 24.7273 6.96079 24.7204C6.81207 24.7136 6.66645 24.6773 6.53307 24.6137C6.06733 24.3997 5.83248 24.0023 5.81257 23.257C5.49731 23.3187 5.17073 23.3003 4.86518 23.2035C4.54673 23.0544 4.34769 22.7258 4.60245 22.206C4.82139 21.7627 5.17169 21.5563 5.57771 21.7436C5.74589 21.8374 5.87976 21.9788 5.96099 22.1485C6.04223 22.3181 6.06686 22.5078 6.03151 22.6914C6.6087 22.657 7.15405 22.6111 7.6994 22.5309C7.6067 22.257 7.42889 22.0169 7.18988 21.8429C7.04657 21.778 6.94706 21.8429 6.82366 22.0187L6.62065 21.9232L7.14609 20.8455L7.36105 20.9372C7.29519 21.0614 7.27241 21.2026 7.29605 21.3401C7.31968 21.4776 7.38848 21.6042 7.49241 21.7015C7.67692 21.9381 7.8319 22.1947 7.95416 22.4659C8.40398 22.3742 8.5234 22.3207 8.62291 22.1219C8.69625 21.9288 8.71412 21.7202 8.67466 21.5181L8.90156 21.6366ZM5.8285 22.7258C5.8312 22.6021 5.79454 22.4806 5.72341 22.3775C5.65228 22.2744 5.55007 22.1946 5.43043 22.1487C5.38507 22.1176 5.33342 22.0961 5.27883 22.0854C5.22424 22.0747 5.16792 22.0751 5.11352 22.0866C5.05911 22.0982 5.00783 22.1205 4.963 22.1523C4.91816 22.184 4.88077 22.2245 4.85324 22.271C4.83321 22.3156 4.82337 22.3638 4.82438 22.4124C4.8254 22.461 4.83724 22.5088 4.85912 22.5526C4.88099 22.5964 4.91239 22.6352 4.9512 22.6664C4.99001 22.6976 5.03534 22.7205 5.08411 22.7334C5.31874 22.826 5.58193 22.826 5.81655 22.7334L5.8285 22.7258ZM7.80688 23.685C7.89555 23.4833 7.91371 23.2593 7.85863 23.0468C7.25856 23.1656 6.64812 23.2296 6.03549 23.2379C6.02088 23.396 6.05787 23.5545 6.14132 23.6914C6.22478 23.8284 6.35056 23.937 6.50122 24.0023C6.89929 24.1742 7.58396 24.1398 7.80688 23.6774" fill="white"/>
<path d="M9.80905 20.0959C10.0957 19.6449 10.0996 19.6105 9.98818 19.5111C9.87672 19.4118 9.49856 19.1672 8.80592 18.7085C8.11329 18.2499 7.77493 18.013 7.61173 17.9442C7.44852 17.8754 7.44056 17.8869 7.1022 18.2996L6.91113 18.1697L8.00979 16.6945L8.1929 16.8168C7.91028 17.2754 7.9063 17.3098 8.01377 17.4015C8.12125 17.4932 8.36407 17.6576 8.57903 17.7837L8.86563 17.9748C8.98505 18.0588 9.02088 18.0588 9.10447 17.9748L9.9006 16.8626C9.97623 16.748 9.97225 16.7289 9.83691 16.6371L9.53836 16.4384C9.33535 16.297 9.06865 16.1327 8.96515 16.0562C8.86165 15.9798 8.80592 16.0104 8.45961 16.4155L8.2765 16.2932L9.33535 14.8333L9.5304 14.9517C9.24778 15.4027 9.24778 15.4409 9.34729 15.5326C9.44681 15.6244 9.83691 15.8881 10.5415 16.3467C11.2461 16.8053 11.5685 17.0384 11.7357 17.111C11.9029 17.1837 11.8989 17.1645 12.2412 16.7289L12.4323 16.8588L11.3695 18.3225L11.1744 18.1964C11.461 17.7455 11.469 17.7034 11.3575 17.6155C11.2461 17.5276 10.8798 17.2754 10.3624 16.9276C10.239 16.8397 10.2071 16.8397 10.1315 16.9505L9.33535 18.0627C9.25574 18.1697 9.2637 18.1964 9.39506 18.2805C9.90856 18.6321 10.2748 18.8691 10.4022 18.9379C10.5295 19.0066 10.5694 18.9914 10.9197 18.5786L11.0948 18.7085L10.0001 20.222L9.80905 20.0959Z" fill="white"/>
<path d="M9.74609 14.3632L10.996 13.0523L11.1632 13.1937C10.8248 13.6103 10.8129 13.6409 10.9045 13.7555C10.996 13.8702 11.3463 14.1606 12.3574 15.032C12.6798 15.311 13.257 15.6473 13.8183 15.0626C14.4472 14.3861 14.1805 13.9963 13.3645 13.2816C12.7117 12.7122 12.3892 12.4446 12.238 12.3338C12.0867 12.223 12.0907 12.2612 11.6687 12.6587L11.5016 12.502L12.5365 11.4089L12.7117 11.5465C12.3693 11.9669 12.3574 12.0013 12.4569 12.1121C12.5564 12.223 12.8988 12.5134 13.7626 13.2587C14.3796 13.7937 14.8931 14.3823 13.9815 15.3454C13.8663 15.4984 13.7168 15.6246 13.5441 15.7147C13.3713 15.8048 13.1797 15.8565 12.9833 15.8661C12.7869 15.8756 12.5908 15.8427 12.4095 15.7698C12.2281 15.6969 12.0661 15.5858 11.9355 15.4447C10.9403 14.5848 10.6218 14.2982 10.4706 14.2103C10.3193 14.1224 10.3193 14.1339 9.92124 14.5008L9.74609 14.3632Z" fill="white"/>
<path d="M15.08 13.6914C15.5019 13.3092 15.5059 13.2672 15.4303 13.1525C15.3546 13.0379 15.0322 12.6825 14.5068 12.0863C13.9813 11.4901 13.6828 11.169 13.5434 11.0506C13.4041 10.9321 13.4001 10.9588 12.9384 11.2951L12.7871 11.1423L13.8858 10.2327C13.9245 10.2689 13.9672 10.3009 14.0132 10.3282L16.5767 11.7499L15.4541 8.93328L16.5289 8.04663L16.6802 8.21097C16.2821 8.59315 16.2463 8.63901 16.3339 8.75366C16.4214 8.86831 16.7319 9.20845 17.2534 9.81994C17.7749 10.4314 18.0814 10.7372 18.2247 10.8556C18.368 10.9741 18.36 10.9474 18.8297 10.6034L18.977 10.7716L17.5639 11.9066L17.4086 11.7423C17.8067 11.3601 17.8067 11.3181 17.739 11.2225L15.7965 9.04412L16.9588 11.9372C16.9884 12.0254 17.0257 12.1111 17.0703 12.1933L16.7678 12.4799C16.7064 12.4339 16.6412 12.393 16.5727 12.3576L13.7345 10.783L15.3626 12.5946C15.4732 12.7124 15.5901 12.8247 15.7129 12.9309C15.8323 13.0226 15.8522 13.0149 16.2742 12.7207L16.4214 12.8812L15.2591 13.8443L15.08 13.6914Z" fill="white"/>
<path d="M19.0845 10.4463C19.4188 10.2017 19.4069 10.0641 19.3114 9.59788L18.8098 7.23984C18.7686 7.00909 18.7141 6.78071 18.6466 6.55574L18.8775 6.41815C19.04 6.55754 19.2129 6.68527 19.3949 6.80033L21.7077 8.32904C22.0142 8.53542 22.0819 8.56599 22.4561 8.32904L22.5795 8.51249L21.0429 9.47176L20.9156 9.28067C21.3614 8.98639 21.3693 8.92906 21.2897 8.81823C21.093 8.63849 20.8798 8.47605 20.6528 8.33286C20.64 8.32617 20.6256 8.32267 20.611 8.32267C20.5964 8.32267 20.5821 8.32617 20.5692 8.33286C20.4538 8.39401 20.215 8.52395 19.7731 8.80677C19.4905 8.97875 19.4945 9.01696 19.5104 9.13544C19.5507 9.35648 19.6148 9.57292 19.7015 9.78132C19.789 9.91508 19.8607 9.91508 20.3065 9.67049L20.4299 9.8654L19.2357 10.6106L19.0845 10.4463ZM20.3025 8.18764C20.3384 8.16088 20.3463 8.13795 20.3344 8.12267C20.3224 8.10738 20.2667 8.07298 20.2468 8.05005L19.0845 7.23601L19.379 8.62714C19.3859 8.65462 19.3952 8.68148 19.4069 8.7074C19.4069 8.72651 19.4547 8.7074 19.4746 8.7074L20.3025 8.18764Z" fill="white"/>
<path d="M22.6191 8.25626C23.0689 8.00402 23.0888 7.97345 23.0171 7.83969C22.9455 7.70592 22.7783 7.31992 22.4081 6.58996C22.0379 5.86 21.8508 5.5084 21.7433 5.35935C21.6359 5.2103 21.6279 5.23705 21.1542 5.42814L21.0547 5.22941L22.0498 4.75933L22.2927 4.90073L24.892 6.29951L24.5218 5.58101C24.1516 4.87016 23.9606 4.49945 23.8571 4.3504C23.7536 4.20135 23.7496 4.2281 23.2042 4.44212L23.1366 4.2625L24.4979 3.61279L24.5975 3.8077C24.1476 4.02172 24.1238 4.07141 24.2392 4.33129C24.3546 4.59117 24.49 4.87016 24.6373 5.11858C25.107 6.01669 25.4971 6.76959 25.728 7.12501L25.3737 7.28935C25.016 7.03163 24.635 6.80523 24.2352 6.61289L22.2449 5.54662L22.7266 6.47531C23.0968 7.18616 23.2918 7.5607 23.3873 7.70974C23.4829 7.85879 23.5028 7.82822 24.1039 7.58363L24.2034 7.77854L22.7146 8.46646L22.6191 8.25626Z" fill="white"/>
<path d="M28.2477 4.78629C28.602 5.32516 29.008 5.64237 29.5533 5.48186C30.0987 5.32134 30.3017 4.91623 30.2062 4.60667C30.1106 4.2971 29.8081 4.24742 29.41 4.22449H28.9682C27.9571 4.22449 27.774 3.93021 27.6307 3.54421C27.4277 2.90597 27.8377 2.32124 28.6298 2.08429C28.9679 1.98189 29.3186 1.92278 29.6727 1.90849C29.6727 1.96199 29.7126 2.05372 29.7404 2.12633C29.8161 2.35946 29.9036 2.59641 30.0071 2.83336L29.7643 2.90597C29.4817 2.32124 29.1075 2.20277 28.6099 2.34799C28.4214 2.38509 28.2548 2.49015 28.1444 2.64158C28.0341 2.793 27.9884 2.97926 28.0168 3.16203C28.0884 3.37988 28.2517 3.49453 28.6696 3.51364L29.617 3.54803C30.2261 3.57096 30.5286 3.77734 30.6759 4.24742C30.8908 4.90859 30.4569 5.48186 29.621 5.73027C29.2468 5.8411 28.8249 5.80671 28.4268 5.91372C28.3392 5.66148 28.1561 5.22198 28.0287 4.90859L28.2477 4.78629Z" fill="white"/>
<path d="M31.2214 4.93531C31.6991 4.80537 31.715 4.78244 31.711 4.64868C31.707 4.51491 31.5956 4.06394 31.4324 3.28048C31.2692 2.49701 31.1776 2.09955 31.1179 1.93139C31.0582 1.76323 31.0383 1.78616 30.5487 1.84349L30.5049 1.63711L32.4952 1.23582C32.7661 1.18177 33.0323 1.10766 33.2913 1.01416C33.3677 1.33889 33.4675 1.65815 33.5899 1.96961L33.3749 2.04604C33.0804 1.42309 32.9769 1.38105 32.2205 1.5301L31.7468 1.58743C31.7328 1.58925 31.7194 1.59417 31.7077 1.60181C31.696 1.60945 31.6862 1.61959 31.6793 1.63144C31.6724 1.6433 31.6684 1.65654 31.6677 1.67012C31.6669 1.6837 31.6695 1.69726 31.6752 1.70972L31.926 2.85626C31.926 2.92887 31.9538 2.94416 32.1051 2.92123L32.2603 2.89448C32.8336 2.78365 32.8495 2.6881 32.8216 2.31739L33.0525 2.27153C33.0843 2.43586 33.1122 2.6002 33.16 2.84097C33.2077 3.08175 33.2675 3.26901 33.2993 3.4066L33.0724 3.4601C32.957 3.10085 32.8734 3.02824 32.4514 3.11232L32.0932 3.17729C32.0295 3.1964 32.0016 3.22315 32.0175 3.29194L32.2922 4.58753C32.2932 4.60119 32.2974 4.61445 32.3047 4.62625C32.3119 4.63805 32.3219 4.64806 32.3339 4.65549C32.3459 4.66291 32.3595 4.66755 32.3737 4.66902C32.3879 4.67049 32.4022 4.66876 32.4156 4.66396L33.3073 4.49198C33.7372 4.40026 33.8168 4.27414 33.8526 3.91872L33.8884 3.53654H34.1472C34.1486 3.87017 34.1725 4.20337 34.2188 4.53402L31.2652 5.1264L31.2214 4.93531Z" fill="white"/>
<path d="M34.6204 4.26265C35.1617 4.17857 35.1896 4.15564 35.1896 4.01424C35.1896 3.87283 35.1577 3.42568 35.0702 2.63457C34.9826 1.84346 34.9508 1.43071 34.9109 1.25491C34.8711 1.07911 34.8473 1.10586 34.2939 1.12114V0.907125L36.3599 0.708392C36.6625 0.650282 36.9767 0.692031 37.2516 0.826868C37.369 0.891899 37.4673 0.98466 37.5369 1.09636C37.6066 1.20805 37.6454 1.33498 37.6496 1.46511C37.7253 2.22946 36.8535 2.43202 36.8535 2.47406C36.8535 2.5161 36.8774 2.53138 36.9411 2.604L37.9402 3.61677C38.183 3.87665 38.2507 3.91869 38.5174 3.89576L38.5373 4.10978L37.6218 4.19768L36.2723 2.68425C36.2285 2.63839 36.1887 2.63457 35.9539 2.64986C35.719 2.66515 35.723 2.68426 35.727 2.73776C35.8225 3.65881 35.8464 3.80404 35.8743 3.94162C35.9021 4.07921 35.938 4.09449 36.4873 4.07538V4.29705L34.6403 4.46903L34.6204 4.26265ZM35.6673 2.32119C35.6673 2.41291 35.6951 2.43584 36.0415 2.40526C36.8734 2.33265 36.9849 1.87786 36.957 1.59122C36.9092 1.16701 36.5589 0.910947 35.9499 0.964452C35.5518 0.998848 35.5518 1.01796 35.5518 1.14408L35.6673 2.32119Z" fill="white"/>
<path d="M37.8174 0.555383L39.6564 0.524809V0.74265H39.4017C39.1549 0.74265 39.1031 0.822908 39.1031 0.906987C39.1031 0.991066 39.3858 1.67134 39.6684 2.37073L40.0664 3.34146L40.4645 2.29812C40.6643 1.83317 40.8305 1.35559 40.9621 0.868769C40.9621 0.727363 40.8745 0.723541 40.3968 0.727363V0.509521H41.8418V0.727363H41.6866C41.4398 0.727363 41.3442 0.834373 41.0974 1.4535C40.2695 3.53255 40.1779 3.77332 40.0983 4.22047H39.744C39.3918 3.1929 38.9771 2.18605 38.5021 1.20509C38.2831 0.765581 38.2473 0.761759 37.8214 0.757937L37.8174 0.555383Z" fill="white"/>
<path d="M41.9894 3.93746C42.5706 3.93746 42.6024 3.93746 42.6303 3.79224C42.6582 3.64701 42.7019 3.2075 42.7656 2.41639C42.8293 1.62528 42.8691 1.20871 42.8612 1.02909C42.8532 0.849462 42.8253 0.872393 42.2481 0.788314L42.272 0.56665L44.1907 0.719522L44.1668 0.937364C43.5896 0.937364 43.5498 0.937364 43.5299 1.07877C43.4576 1.5372 43.4111 1.99903 43.3906 2.46226C43.3229 3.25719 43.2831 3.66612 43.2951 3.8381C43.307 4.01008 43.3309 4.00243 43.9041 4.08269V4.30053L41.9814 4.15531L41.9894 3.93746Z" fill="white"/>
<path d="M47.7291 4.03665C47.5148 4.283 47.2371 4.47118 46.9235 4.58249C46.6099 4.69379 46.2715 4.72433 45.9418 4.67106C45.0939 4.5373 44.2699 3.83027 44.4889 2.54615C44.515 2.29605 44.5958 2.05404 44.7259 1.83593C44.8561 1.61781 45.0326 1.42847 45.2441 1.28026C45.4555 1.13205 45.6971 1.0283 45.9532 0.975772C46.2092 0.923242 46.4739 0.923114 46.73 0.975397C47.1071 1.04879 47.4743 1.1629 47.8247 1.31554C47.7928 1.64581 47.7822 1.97766 47.7928 2.3092H47.5301C47.4425 1.68243 47.1758 1.2926 46.5708 1.19706C45.902 1.09387 45.3487 1.64039 45.1855 2.61494C45.0103 3.65065 45.496 4.26595 46.113 4.35768C46.3702 4.40019 46.6345 4.37859 46.8805 4.29494C47.1266 4.21129 47.3461 4.0684 47.5182 3.87995L47.7291 4.03665Z" fill="white"/>
<path d="M47.7726 4.66386C48.2662 4.75559 48.2941 4.74794 48.3458 4.61418C48.3976 4.48042 48.5329 4.0562 48.7439 3.28038C48.9549 2.50456 49.0703 2.13384 49.1021 1.93511C49.134 1.73638 49.1021 1.7746 48.6245 1.61408L48.6842 1.39624L50.6347 1.90836C50.9065 1.97735 51.1833 2.02717 51.4627 2.05741C51.399 2.302 51.2955 2.88291 51.2835 3.02814H51.0606C51.0925 2.34022 51.0009 2.24468 50.2645 2.06123L49.8067 1.92365C49.739 1.92365 49.6992 1.92365 49.6793 2.00008L49.3609 3.14662C49.3609 3.20777 49.3609 3.24216 49.5002 3.28038L49.6515 3.3186C50.2088 3.46383 50.2764 3.38739 50.4197 3.04725L50.6546 3.1084C50.5989 3.27274 50.5431 3.41796 50.4794 3.66638C50.4158 3.9148 50.368 4.0906 50.3361 4.23583L50.0973 4.1785C50.1729 3.79632 50.1331 3.70078 49.7231 3.60141L49.3688 3.49822C49.356 3.49338 49.3422 3.49152 49.3285 3.49277C49.3148 3.49402 49.3016 3.49836 49.2899 3.50544C49.2783 3.51251 49.2686 3.52212 49.2615 3.53348C49.2545 3.54485 49.2503 3.55764 49.2494 3.57083L48.8951 4.83967C48.8951 4.90464 48.8951 4.93903 48.9628 4.95814L49.8505 5.18363C49.9178 5.21702 49.9916 5.23649 50.0672 5.24077C50.1429 5.24505 50.2186 5.23404 50.2895 5.20847C50.3604 5.18289 50.4249 5.14332 50.4789 5.0923C50.5329 5.04128 50.5751 4.97995 50.6028 4.91228L50.8019 4.59507L51.0248 4.72884C50.8724 5.02637 50.7395 5.3327 50.6267 5.64606L47.7129 4.88171L47.7726 4.66386Z" fill="white"/>
<path d="M51.8446 4.7597C51.7769 5.39412 51.9004 5.87948 52.4377 6.07822C52.9751 6.27695 53.3891 6.07822 53.5045 5.76483C53.62 5.45144 53.421 5.24507 53.1065 5.00047L52.7562 4.73295C51.9601 4.12911 51.9879 3.79279 52.1352 3.41061C52.386 2.78384 53.0906 2.56218 53.8588 2.84117C54.1875 2.95893 54.5002 3.11419 54.7903 3.3036C54.7677 3.37799 54.7398 3.45078 54.7067 3.52144C54.6152 3.75839 54.5475 3.99152 54.4679 4.23612L54.2251 4.15586C54.3763 3.52527 54.1534 3.2157 53.6757 3.04372C53.5035 2.95728 53.3027 2.93971 53.117 2.99483C52.9313 3.04995 52.7759 3.17331 52.6845 3.338C52.6049 3.55202 52.6607 3.72018 52.9831 3.99152L53.7076 4.57243C54.1733 4.95461 54.2808 5.28711 54.1056 5.75337C53.8509 6.41071 53.1463 6.6018 52.3303 6.30752C51.9601 6.18141 51.6336 5.88331 51.2754 5.76101C51.3709 5.50877 51.5103 5.0578 51.5938 4.72148L51.8446 4.7597Z" fill="white"/>
<path d="M56.1763 5.4818C56.2614 5.52566 56.3256 5.59942 56.3553 5.68764C56.3851 5.77587 56.3782 5.87172 56.336 5.95516C56.2938 6.03859 56.2197 6.10314 56.1291 6.13529C56.0385 6.16745 55.9384 6.16472 55.8499 6.12768C55.8052 6.10852 55.7651 6.08076 55.732 6.04613C55.6989 6.01149 55.6735 5.97071 55.6575 5.9263C55.6414 5.88189 55.635 5.8348 55.6387 5.78793C55.6423 5.74106 55.656 5.6954 55.6787 5.65378C55.6988 5.61044 55.7278 5.57145 55.764 5.53915C55.8002 5.50685 55.8428 5.48192 55.8893 5.46585C55.9358 5.44979 55.9852 5.44292 56.0345 5.44566C56.0838 5.4484 56.1321 5.46069 56.1763 5.4818Z" fill="white"/>
<path d="M57.9198 4.60278L59.5121 5.5009L59.3926 5.68435C58.8951 5.45504 58.8712 5.45504 58.7756 5.56969C58.6801 5.68435 58.4532 6.07035 57.7606 7.19013C57.5536 7.54174 57.3187 8.16086 58.0432 8.56597C58.8393 9.01694 59.1976 8.69591 59.7589 7.77486C60.2007 7.04873 60.4157 6.68948 60.4953 6.52896C60.5749 6.36845 60.5351 6.36845 60.0455 6.05506L60.1609 5.86397L61.5064 6.62833L61.3869 6.81177C60.8933 6.57865 60.8615 6.57482 60.7699 6.68948C60.6784 6.80413 60.4395 7.18249 59.8504 8.1494C59.4444 8.84878 58.9627 9.43352 57.7685 8.77999C57.5875 8.70345 57.4268 8.58863 57.2985 8.44413C57.1701 8.29962 57.0774 8.12914 57.0273 7.94542C56.9771 7.76171 56.9709 7.56949 57.0089 7.38312C57.047 7.19675 57.1284 7.02104 57.2471 6.8691C57.9238 5.75696 58.1387 5.40154 58.2104 5.2372C58.282 5.07286 58.2502 5.08051 57.8123 4.78241L57.9198 4.60278Z" fill="white"/>
<path d="M60.8291 9.10859C60.5823 9.69714 60.5664 10.1978 61.0162 10.5303C61.466 10.8628 61.9437 10.7711 62.1427 10.5303C62.3417 10.2895 62.2024 10.0029 61.9715 9.68568L61.7208 9.34172C61.1356 8.54679 61.2431 8.23722 61.5018 7.90473C61.8999 7.3735 62.6522 7.33528 63.321 7.80536C63.5993 7.99922 63.8555 8.22084 64.0853 8.46653C64.0455 8.52004 63.9818 8.59265 63.938 8.64615C63.7867 8.84871 63.6474 9.05891 63.5041 9.27675L63.2971 9.13534C63.6235 8.5659 63.4961 8.20665 63.0861 7.92001C62.9462 7.79175 62.7601 7.72019 62.5666 7.72019C62.3732 7.72019 62.1871 7.79175 62.0472 7.92001C61.9118 8.10728 61.9118 8.30219 62.1427 8.63087L62.6761 9.39522C63.0185 9.88059 63.0224 10.2322 62.7199 10.6297C62.294 11.1838 61.5536 11.1915 60.853 10.6985C60.5306 10.4691 60.3076 10.1137 59.9932 9.89588C60.1484 9.67421 60.4191 9.27675 60.5863 8.97101L60.8291 9.10859Z" fill="white"/>
<path d="M62.4534 11.4514C62.7798 11.7036 62.9232 11.6539 63.361 11.4514L65.6101 10.3965C66.0081 10.2055 66.0878 10.1634 66.2629 10.0602L66.4699 10.2399C66.3573 10.4242 66.264 10.6188 66.1913 10.8208L65.228 13.3622C65.1006 13.7024 65.0886 13.7444 65.423 14.0502L65.2757 14.2069L63.9183 13.0298L64.0656 12.8654C64.4836 13.1979 64.5512 13.1979 64.6388 13.0947C64.7653 12.8643 64.8744 12.6255 64.9652 12.38C64.9685 12.3634 64.9673 12.3463 64.9617 12.3302C64.9561 12.3142 64.9464 12.2997 64.9334 12.2883C64.8418 12.189 64.6428 12.0055 64.2487 11.6577C63.9979 11.4399 63.9701 11.4475 63.8506 11.501C63.6372 11.5933 63.4333 11.7046 63.2416 11.8335C63.1341 11.952 63.154 12.0132 63.5043 12.3762L63.3451 12.5367L62.2823 11.6042L62.4534 11.4514ZM65.0329 12.0055C65.0687 12.0399 65.0886 12.0361 65.1045 12.0323C65.1275 11.9994 65.1449 11.9633 65.1563 11.9253L65.6817 10.6373L64.3641 11.2679L64.2845 11.3099C64.279 11.3216 64.2784 11.3349 64.2828 11.3471C64.2873 11.3592 64.2965 11.3692 64.3084 11.3749L65.0329 12.0055Z" fill="white"/>
</svg>
