<svg width="111" height="40" viewBox="0 0 111 40" fill="none" xmlns="http://www.w3.org/2000/svg">
<path d="M61.43 7.4867C61.43 9.84486 60.8297 11.6888 59.6291 13.0186C58.4285 14.3395 56.7719 15 54.6592 15C53.3283 15 52.1556 14.6941 51.1411 14.0824C50.1267 13.4707 49.3495 12.5931 48.8097 11.4495C48.2699 10.3059 48 8.98493 48 7.4867C48 5.12855 48.6003 3.29344 49.8009 1.98138C51.0015 0.660461 52.6489 0 54.7429 0C56.8277 0 58.4611 0.669326 59.6431 2.00798C60.8344 3.33777 61.43 5.16401 61.43 7.4867ZM49.4519 7.4867C49.4519 9.47252 49.9079 11.0239 50.82 12.141C51.7414 13.2491 53.0398 13.8032 54.715 13.8032C56.3903 13.8032 57.684 13.2491 58.5961 12.141C59.5175 11.0239 59.9781 9.47252 59.9781 7.4867C59.9781 5.49202 59.5128 3.94504 58.5821 2.84574C57.6607 1.74645 56.3624 1.19681 54.6871 1.19681C53.0118 1.19681 51.7182 1.74645 50.8061 2.84574C49.9033 3.93617 49.4519 5.48316 49.4519 7.4867Z" fill="#0071BC"/>
<path d="M76.2143 14.734V5.35904C76.2143 3.90514 75.8932 2.85018 75.251 2.19415C74.6088 1.52926 73.6129 1.19681 72.2634 1.19681C70.4486 1.19681 69.1177 1.63564 68.2707 2.5133C67.4331 3.38209 67.0143 4.7961 67.0143 6.75532V14.734H65.6322V0.279255H66.8049L67.0701 2.26064H67.1539C68.1404 0.753546 69.8948 0 72.417 0C75.8606 0 77.5824 1.75975 77.5824 5.27926V14.734H76.2143Z" fill="#0071BC"/>
<path d="M88.6252 15C86.4194 15 84.6976 14.3528 83.4598 13.0585C82.2313 11.7642 81.617 9.95124 81.617 7.61968C81.617 5.31472 82.2126 3.47074 83.4039 2.08777C84.5952 0.695922 86.2007 0 88.2203 0C90.0073 0 91.4173 0.593972 92.4504 1.78191C93.4835 2.96986 94 4.58333 94 6.62234V7.68617H83.0689C83.0875 9.67199 83.5715 11.1879 84.5208 12.234C85.4794 13.2801 86.8475 13.8032 88.6252 13.8032C89.4907 13.8032 90.2493 13.7456 90.9008 13.6303C91.5616 13.5151 92.3945 13.2668 93.3997 12.8856V14.0824C92.5434 14.4371 91.7523 14.6764 91.0264 14.8005C90.3005 14.9335 89.5 15 88.6252 15ZM88.2203 1.17021C86.7591 1.17021 85.5864 1.63121 84.7023 2.55319C83.8181 3.46631 83.3016 4.78723 83.1527 6.51596H92.5341C92.5341 4.84043 92.1526 3.5328 91.3894 2.59309C90.6262 1.6445 89.5699 1.17021 88.2203 1.17021Z" fill="#0071BC"/>
<path d="M56.7699 40L52.6534 25.008H52.5295C52.7222 27.5136 52.8186 29.4604 52.8186 30.8483V40H48V19.2934H55.2417L59.4408 33.7963H59.5509L63.6674 19.2934H70.9229V40H65.9253V30.7644C65.9253 30.2987 65.9299 29.7817 65.939 29.2135C65.9574 28.6453 66.0216 27.2528 66.1318 25.0359H66.0079L61.9465 40H56.7699Z" fill="#0071BC"/>
<path d="M87.6614 40L86.6178 35.8921H80.0782L79.1118 40H73.1367L79.6514 19.2096H86.9069L93.6089 40H87.6614ZM85.4889 31.3652L84.6215 28.0119C84.4196 27.2668 84.1718 26.3027 83.8781 25.1197C83.5935 23.9368 83.4054 23.0891 83.3136 22.5768C83.231 23.0519 83.0658 23.8343 82.818 24.9241C82.5793 26.0139 82.0424 28.161 81.2072 31.3652H85.4889Z" fill="#0071BC"/>
<path d="M104.708 23.5269C103.414 23.5269 102.405 24.0672 101.679 25.1477C100.954 26.2189 100.592 27.6999 100.592 29.5908C100.592 33.5216 102.065 35.487 105.011 35.487C105.901 35.487 106.764 35.3612 107.599 35.1097C108.435 34.8582 109.274 34.5555 110.119 34.2015V38.8682C108.439 39.6227 106.539 39.9999 104.419 39.9999C101.381 39.9999 99.0498 39.1057 97.4253 37.3173C95.8099 35.5289 95.0022 32.944 95.0022 29.5628C95.0022 27.4484 95.3923 25.5901 96.1724 23.988C96.9618 22.3859 98.0907 21.1563 99.5592 20.2994C101.037 19.4331 102.772 19 104.763 19C106.939 19 109.017 19.4797 111 20.4391L109.334 24.7844C108.591 24.4304 107.847 24.1324 107.104 23.8902C106.36 23.648 105.562 23.5269 104.708 23.5269Z" fill="#0071BC"/>
<path fill-rule="evenodd" clip-rule="evenodd" d="M0 0H40V40H0V0ZM4.00019 36V28V4H12.0002H36.0002V28H12.0002V36H4.00019Z" fill="#0071BC"/>
</svg>
